<?xml version="1.0" encoding="UTF-8" standalone="no"?>
<!-- Created with Inkscape (http://www.inkscape.org/) -->

<svg
   xmlns:dc="http://purl.org/dc/elements/1.1/"
   xmlns:cc="http://creativecommons.org/ns#"
   xmlns:rdf="http://www.w3.org/1999/02/22-rdf-syntax-ns#"
   xmlns:svg="http://www.w3.org/2000/svg"
   xmlns="http://www.w3.org/2000/svg"
   xmlns:sodipodi="http://sodipodi.sourceforge.net/DTD/sodipodi-0.dtd"
   xmlns:inkscape="http://www.inkscape.org/namespaces/inkscape"
   width="225.77777mm"
   height="65.269592mm"
   viewBox="0 0 799.99997 231.27021"
   id="svg2"
   version="1.1"
   inkscape:version="0.91 r13725"
   sodipodi:docname="ShakingHands.svg">
  <defs
     id="defs4" />
  <sodipodi:namedview
     id="base"
     pagecolor="#ffffff"
     bordercolor="#666666"
     borderopacity="1.0"
     inkscape:pageopacity="0.0"
     inkscape:pageshadow="2"
     inkscape:zoom="1.38"
     inkscape:cx="399.99999"
     inkscape:cy="115.6351"
     inkscape:document-units="px"
     inkscape:current-layer="layer1"
     showgrid="false"
     fit-margin-top="0"
     fit-margin-left="0"
     fit-margin-right="0"
     fit-margin-bottom="0"
     inkscape:window-width="1600"
     inkscape:window-height="837"
     inkscape:window-x="-8"
     inkscape:window-y="-8"
     inkscape:window-maximized="1" />
  <metadata
     id="metadata7">
    <rdf:RDF>
      <cc:Work
         rdf:about="">
        <dc:format>image/svg+xml</dc:format>
        <dc:type
           rdf:resource="http://purl.org/dc/dcmitype/StillImage" />
        <dc:title></dc:title>
      </cc:Work>
    </rdf:RDF>
  </metadata>
  <g
     inkscape:label="Layer 1"
     inkscape:groupmode="layer"
     id="layer1"
     transform="translate(555.96116,807.17645)">
    <g
       id="g9283"
       transform="matrix(6.8692271e-5,0,0,6.7202118e-5,-877.96856,-2150.2423)"
       style="fill-rule:evenodd">
      <g
         id="g4963"
         transform="matrix(53973,0,0,55790,4266000,13672000)"
         style="stroke-width:0.50099999;stroke-linejoin:bevel">
        <path
           id="path3235"
           d="m 84.269,149.96 c 1.862,-1.64 3.341,-3.31 4.384,-4.95 l 7.885,-0.26 c -1.346,2.71 -3.237,5.04 -6.188,6.67 -2.672,1.25 -4.573,0.5 -6.081,-1.46 z"
           inkscape:connector-curvature="0"
           style="fill:#e68a5d" />
        <path
           id="path3237"
           d="m 83.951,150.2 0.053,-0.54 c 1.841,-1.62 3.292,-3.26 4.31,-4.87 l 0.325,-0.18 7.885,-0.26 0.372,0.57 c -1.374,2.78 -3.316,5.18 -6.374,6.86 -2.864,1.34 -4.962,0.51 -6.571,-1.58 z m 5.333,1.21 0.881,-0.35 1.955,-1.3 c 1.192,-0.95 2.159,-2.05 2.964,-3.27 l 0.751,-1.32 -6.981,0.23 -1.787,2.35 -2.237,2.21 -0.244,-0.25 c 1.231,1.6 2.689,2.32 4.698,1.7 z"
           inkscape:connector-curvature="0"
           style="fill:#7f4100" />
        <path
           id="path3240"
           d="m 8.7708,140.12 0.2973,-0.54 c 26.732,-4.32 56.827,-10.78 83.707,-18.29 3.861,-2.76 8.355,-4.76 13.025,-6.42 6.68,0.43 12.76,1.15 18.66,2.03 l 27.13,31.88 -2.26,2.94 1.05,1.31 -3.47,2.29 -3.51,-1.74 c -0.65,3.4 -3.14,3.8 -6.21,3.21 -2.33,2.23 -4.85,3.24 -7.57,1.48 l -4.41,2.16 -9.1,-2.82 c -8.9,-3.5 -17.214,-7.56 -25.294,-11.78 l -67.162,24.37 -2.256,-3.29 c -5.407,-9.3 -8.985,-17.32 -12.627,-26.79 z"
           inkscape:connector-curvature="0"
           style="fill:#f1bd89" />
        <path
           id="path3242"
           d="m 24.432,170.31 c 25.887,-9.71 38.956,-16.6 66.267,-24.87 l 0.302,0.03 c 6.055,3.17 12.239,6.24 18.699,9.05 l 6.55,2.71 8.92,2.77 4.27,-2.09 0.4,0.02 c 2.48,1.61 4.8,0.75 7.07,-1.43 l 0.36,-0.1 c 3.01,0.58 5.16,0.16 5.74,-2.89 l 0.57,-0.29 3.3,1.64 4.2,-6.07 -26.83,-31.51 -8.87,-1.17 c -1.55,-0.17 -3.11,-0.33 -4.71,-0.47 l -4.81,-0.36 -3.37,1.28 c -3.401,1.38 -6.62,3.01 -9.483,5.05 l -0.125,0.06 c -27.457,7.67 -57.246,13.62 -84.553,17.98 l -0.5162,-0.82 c 23.388,-3.69 48.003,-8.31 71.442,-14.33 l 13.355,-3.58 2.969,-1.91 c 3.141,-1.82 6.571,-3.26 10.091,-4.52 l 0.16,-0.02 c 6.69,0.43 12.78,1.15 18.68,2.03 l 0.25,0.14 27.14,31.88 0.01,0.5 -1.22,3.76 -3.56,2.87 -0.4,0.03 -3.08,-1.53 -0.22,0.76 c -0.76,1.84 -2.26,2.48 -4.06,2.51 l -2.06,-0.22 -1.69,1.35 c -1.6,1 -3.31,1.36 -5.12,0.63 l -0.88,-0.46 -4.24,2.07 -0.29,0.02 -9.12,-2.83 c -6.7,-2.63 -13.05,-5.57 -19.225,-8.66 l -5.964,-3.06 -11.47,3.72 c -23.501,8.1 -31.833,13.19 -54.591,21.64 l -0.288,-1.31 z"
           inkscape:connector-curvature="0"
           style="fill:#7f4100" />
        <path
           id="path3244"
           d="m 18.62,162.29 65.971,-18.85 5.865,-0.33 33.604,14.37 c 0.82,0.03 1.9,-0.5 2.36,-1.77 0.85,0.7 1.55,1.25 2.02,1.84 l 0.37,0.67 -3.64,1.78 -8.92,-2.77 -6.55,-2.71 c -6.46,-2.81 -12.644,-5.88 -18.699,-9.05 l -0.302,-0.03 c -10.998,3.33 -21.719,7.3 -32.293,11.49 l -34.012,13.69 -5.774,-8.33 z"
           inkscape:connector-curvature="0"
           style="fill:#e68a5d" />
        <path
           id="path3246"
           d="m 124.84,153.52 c 2.43,-0.75 5.11,-1.8 6.79,-3.53 1.62,1.61 3.03,3.49 4.11,5.24 l 0.87,1.54 c -0.43,0.42 -0.92,0.76 -1.41,1.1 -3.21,3.27 -7.53,-1.42 -10.36,-4.35 z"
           inkscape:connector-curvature="0"
           style="fill:#e68a5d" />
        <path
           id="path3248"
           d="m 138.36,156.56 -0.53,-0.08 -0.4,0.2 c -2.18,-1.67 -4.52,-5.82 -6.04,-7.48 2.07,0.3 4.1,-0.98 6.19,-3.47 1.62,1.59 3.55,4.5 4.89,6.75 l 0.58,1.01 -0.04,0.02 c -0.51,2.67 -2.22,3.32 -4.65,3.05 z"
           inkscape:connector-curvature="0"
           style="fill:#e68a5d" />
        <path
           id="path3250"
           d="m 146.88,154.86 -2.73,-1.26 c -3.33,-3.17 -5.23,-6.07 -8.23,-9.53 2.43,-0.28 4.54,-2.1 6.31,-4 2.5,4.26 7.87,6.85 7.49,12.78 l -0.25,0.29 -2.59,1.72 z"
           inkscape:connector-curvature="0"
           style="fill:#e68a5d" />
        <path
           id="path3252"
           d="m 129.36,158.51 -12.53,-10.74 0.52,-0.61 12.53,10.74 -0.52,0.61 z"
           inkscape:connector-curvature="0"
           style="fill:#7f4100" />
        <path
           id="path3254"
           d="m 119.76,139.8 0.62,-0.5 c 3.96,4.93 11.88,8.46 17.09,17.16 l -0.69,0.41 c -5.34,-8.93 -12.54,-11.47 -17.02,-17.07 z"
           inkscape:connector-curvature="0"
           style="fill:#7f4100" />
        <path
           id="path3256"
           d="m 127.98,136.98 0.67,-0.44 c 4,6.08 10.48,8.12 15.17,16.79 l -0.71,0.38 c -4.69,-8.68 -10.9,-10.3 -15.13,-16.73 z"
           inkscape:connector-curvature="0"
           style="fill:#7f4100" />
        <path
           id="path3260"
           d="m 150.05,151.62 c -2.66,-5.13 -6.06,-10.25 -11.16,-15.34 -3.86,-2.46 -6.81,-4.94 -8.74,-7.44 -2.71,-1.3 -4.91,-2.61 -6.45,-3.92 -2.42,-0.2 -3.86,-0.79 -5.33,-1.38 -3.14,2 -6.32,3.57 -9.46,4.85 -3.66,-0.43 -6.31,-1.25 -5.3,-3.77 2.39,-2.19 4.55,-5.17 6.51,-8.93 0.69,-0.89 2.03,-1.44 4.29,-2 1.54,-0.2 7.4,-0.13 12.34,0 4.52,1.7 17.08,8.64 25,15.15 23.78,4.55 43.06,11.27 67.86,16.54 l 3.53,0.64 -3.13,7 c -3.32,8.68 -7.89,14.88 -12.23,21.53 -22.06,-9.82 -38.22,-17.65 -57.73,-22.93 z"
           inkscape:connector-curvature="0"
           style="fill:#f1bd89" />
        <path
           id="path3264"
           d="m 155.09,152.66 -4.77,-1.37 -2.07,-3.72 -1.86,-2.89 68.45,19.24 -2.83,4.13 c -0.28,2.34 -3,3.99 -3.36,6.29 l -1.59,-0.83 c -17.92,-8 -35.75,-15.92 -51.97,-20.85 z"
           inkscape:connector-curvature="0"
           style="fill:#e68a5d" />
        <path
           id="path3266"
           d="m 143.32,140.59 -0.2,-0.26 c -1.2,-1.45 -2.5,-2.89 -3.95,-4.34 l -0.07,-0.05 c -3.84,-2.44 -6.74,-4.9 -8.63,-7.34 l -0.14,-0.12 c -2.71,-1.3 -4.87,-2.59 -6.37,-3.87 l -0.22,-0.09 c -2.37,-0.19 -3.76,-0.76 -5.23,-1.35 l -0.36,0.03 c -1.56,1 -3.12,1.88 -4.69,2.68 l -2.97,1.35 -0.7,-0.45 c 2.69,-2.19 6.68,-4.02 5.99,-7.2 2.39,1.15 7.92,3.14 10.64,2.29 1.41,-0.45 2.23,2.95 3.53,3.14 -0.03,4.65 12.08,11.33 19.38,8.97 l -6.01,6.61 z"
           inkscape:connector-curvature="0"
           style="fill:#e68a5d" />
        <path
           id="path3269"
           d="m 90.486,151.17 12.604,-5.76 c 2.32,0.58 4.08,1.73 3.96,4.84 -2.59,2.48 -5.59,4.78 -9.731,6.54 -5.1,-0.42 -6.638,-2.64 -6.833,-5.62 z"
           inkscape:connector-curvature="0"
           style="fill:#f1bd89" />
        <path
           id="path3271"
           d="m 90.086,151.19 0.233,-0.39 12.601,-5.76 0.26,-0.02 c 2.43,0.61 4.4,1.87 4.27,5.25 l -0.12,0.27 c -2.62,2.51 -5.66,4.83 -9.854,6.62 l -0.19,0.03 c -5.269,-0.44 -6.99,-2.79 -7.2,-6 z m 7.166,5.19 2.768,-1.36 c 1.79,-0.99 3.34,-2.09 4.74,-3.26 l 1.88,-1.68 -0.03,-0.83 c -0.18,-1.51 -0.95,-2.37 -2.09,-2.92 l -1.41,-0.49 -12.191,5.57 0.093,0.73 c 0.383,1.93 1.596,3.41 4.652,4.02 l 1.588,0.22 z"
           inkscape:connector-curvature="0"
           style="fill:#7f4100" />
        <path
           id="path3273"
           d="m 97.252,156.38 -1.588,-0.22 c -3.056,-0.61 -4.269,-2.09 -4.652,-4.02 l -0.093,-0.73 4.469,-2.04 0.416,0.92 c 1.153,2.28 3.037,4.22 6.296,3.36 l -0.01,0.09 -2.07,1.28 -2.768,1.36 z"
           inkscape:connector-curvature="0"
           style="fill:#e68a5d" />
        <path
           id="path3276"
           d="m 99.421,155.71 8.969,-8.01 c 3.04,-0.99 4.81,1.05 5.6,2.81 l -6.94,9.65 c -3.96,0.17 -6.06,-1.4 -7.629,-4.45 z"
           inkscape:connector-curvature="0"
           style="fill:#f1bd89" />
        <path
           id="path3278"
           d="m 99.064,155.89 0.09,-0.48 8.966,-8.01 0.14,-0.08 c 3.34,-1.08 5.27,1.19 6.09,3.03 l -0.04,0.4 -6.93,9.64 -0.31,0.17 c -4.14,0.17 -6.37,-1.5 -8.006,-4.67 z m 7.786,3.87 6.66,-9.27 -0.62,-1.06 c -0.75,-0.98 -1.86,-1.73 -3.4,-1.56 l -0.91,0.19 -8.639,7.72 1.069,1.66 c 1.14,1.37 2.59,2.15 4.68,2.3 l 1.16,0.02 z"
           inkscape:connector-curvature="0"
           style="fill:#7f4100" />
        <path
           id="path3280"
           d="m 106.85,159.76 -1.16,-0.02 c -2.09,-0.15 -3.54,-0.93 -4.68,-2.3 l -1.069,-1.66 2.519,-2.25 0.73,0.99 c 1.09,1.35 2.47,2.5 4.17,2.71 l 1.33,-0.04 -1.84,2.57 z"
           inkscape:connector-curvature="0"
           style="fill:#e68a5d" />
        <path
           id="path3283"
           d="m 107.31,160.55 6.68,-9.62 c 1.53,0.1 2.97,0.72 4.12,2.65 -0.62,3.08 -2.62,6.16 -5.63,9.23 -2.98,-0.39 -5.08,-1.07 -5.17,-2.26 z"
           inkscape:connector-curvature="0"
           style="fill:#f1bd89" />
        <path
           id="path3285"
           d="m 106.91,160.58 0.07,-0.26 6.68,-9.62 0.35,-0.17 c 1.66,0.11 3.22,0.8 4.44,2.85 l 0.05,0.28 c -0.64,3.19 -2.7,6.34 -5.74,9.43 l -0.33,0.12 c -2.82,-0.37 -5.39,-1.04 -5.52,-2.63 z m 5.42,1.8 1.9,-2.13 c 1.22,-1.51 2.16,-3.01 2.79,-4.51 l 0.65,-2.08 -0.75,-1.01 c -0.6,-0.61 -1.24,-0.96 -1.92,-1.15 l -0.83,-0.13 -6.42,9.23 0.29,0.49 c 0.42,0.37 1.23,0.7 2.42,0.97 l 1.87,0.32 z"
           inkscape:connector-curvature="0"
           style="fill:#7f4100" />
        <path
           id="path3287"
           d="m 112.33,162.38 -1.87,-0.32 c -1.19,-0.27 -2,-0.6 -2.42,-0.97 l -0.29,-0.49 2.2,-3.16 0.24,0.24 c 0.99,0.88 2.13,1.63 3.36,1.94 l 1.05,0.12 -0.37,0.51 -1.9,2.13 z"
           inkscape:connector-curvature="0"
           style="fill:#e68a5d" />
        <path
           id="path3262"
           d="m 149.7,151.81 c -1.99,-3.83 -4.38,-7.64 -7.6,-11.45 l -3.48,-3.78 -2.69,-1.83 c -1.71,-1.24 -3.19,-2.5 -4.43,-3.76 l -1.6,-1.82 -1.87,-0.95 c -1.24,-0.66 -2.34,-1.33 -3.28,-1.99 l -1.2,-0.93 -1.57,-0.2 c -0.52,-0.1 -0.98,-0.21 -1.41,-0.34 l -2.17,-0.78 -4.58,2.61 c -1.59,0.81 -3.18,1.53 -4.76,2.17 l -0.19,0.03 c -3.42,-0.4 -6.87,-1.24 -5.63,-4.32 l 0.1,-0.14 c 2.34,-2.16 4.48,-5.09 6.43,-8.83 l 0.04,-0.06 c 0.78,-1.01 2.26,-1.58 4.5,-2.14 l 0.05,-0.01 c 1.58,-0.2 7.47,-0.13 12.4,0 l 0.13,0.03 c 3.99,1.5 14.14,7.02 21.94,12.75 l 3.09,2.4 11.82,2.48 c 17.37,3.94 34.73,8.98 52.63,13.12 l 7.22,1.69 -0.65,0.57 -3.64,-0.77 c -23.16,-5.19 -45.41,-12.08 -67.63,-16.32 l -0.18,-0.09 c -7.39,-6.08 -18.86,-12.53 -23.96,-14.71 l -0.87,-0.35 -3.72,-0.08 c -3.17,-0.05 -6.17,-0.06 -7.73,0.02 l -0.73,0.06 -1.49,0.41 c -0.88,0.28 -1.52,0.57 -1.99,0.9 l -0.55,0.52 -1.5,2.65 c -1.04,1.7 -2.13,3.21 -3.29,4.53 l -1.69,1.73 -0.16,0.62 c -0.1,1.26 1.24,1.94 3.78,2.36 l 1.26,0.17 4.61,-2.1 c 1.57,-0.8 3.13,-1.68 4.69,-2.68 l 0.36,-0.03 c 1.47,0.59 2.86,1.16 5.23,1.35 l 0.22,0.09 c 1.5,1.28 3.66,2.57 6.37,3.87 l 0.14,0.12 c 1.89,2.44 4.79,4.9 8.63,7.34 l 0.07,0.05 c 3.85,3.85 6.74,7.71 9.08,11.58 l 2.07,3.72 4.77,1.37 c 16.22,4.93 35.51,13.45 53.43,21.45 l -0.45,0.74 c -18.88,-8 -36.48,-16.71 -58.37,-23.04 z"
           inkscape:connector-curvature="0"
           style="fill:#7f4100" />
      </g>
      <path
         id="path5216"
         d="m 10057000,20424000 214000,50000 c -50000,124000 -205000,298000 -390900,164000 259900,-284000 120900,-146000 176900,-214000 z"
         inkscape:connector-curvature="0"
         style="fill:#ffe6d5" />
      <path
         id="path7444"
         d="m 9673200,21912000 c 126000,181000 149500,179000 149500,179000 41900,-34000 91100,-64000 104500,-113000 -17500,-42000 -10300,-85000 -112900,-128000 l -141100,62000 z"
         inkscape:connector-curvature="0"
         style="fill:#fae4d4;stroke:#000000;stroke-width:1px" />
      <path
         id="path8559"
         d="m 10051000,22054000 c 123000,127000 173000,114000 196000,131000 30000,-29000 41000,-58000 59000,-77000 21000,-23000 21000,-72000 3000,-94000 -34000,-36000 -111000,-84000 -151000,-52000 -32000,2000 -59000,29000 -107000,92000 z"
         inkscape:connector-curvature="0"
         style="fill:#fae4d4;stroke:#000000;stroke-width:1.06190002px" />
      <path
         id="path8561"
         d="m 10381000,22249000 c 77000,80000 138000,85000 141000,85000 21000,-24000 43000,-46000 52000,-94000 -59000,-78000 -111000,-71000 -146000,-66000 l -47000,75000 z"
         inkscape:connector-curvature="0"
         style="fill:#ffe6d5;stroke:#000000;stroke-width:1px" />
      <path
         id="path8563"
         d="m 12098000,22212000 c 28000,-118000 173000,-123000 174000,-123000 39000,52000 35000,76000 38000,104000 -26000,22000 -43000,41000 -104000,75000 -32000,-13000 -53000,-9000 -108000,-56000 z"
         inkscape:connector-curvature="0"
         style="fill:#ffccaa;stroke:#000000;stroke-width:1px" />
    </g>
  </g>
</svg>
